# xmcd CD database file
#
# Track frame offsets:
#	150
#	14296
#	29968
#	42813
#	57104
#	71419
#	86709
#	99359
#	110100
#	124045
#	138931
#	150577
#	163868
#	177172
#	192457
#	205020
#	218794
#	230980
#
# Disc length: 3271 seconds
#
# Revision: 3
# Processed by: cddbd v1.5.2PL0 Copyright (c) Steve Scherf et al.
# Submitted via: CDex 1.70beta2
#
DISCID=020cc512
DTITLE=Lionel Hampton Orchestra - Jazz Classic's 1
DYEAR=1900
DGENRE=Jazz
TTITLE0=Buzzin' Round With The Bee
TTITLE1=Confessin'
TTITLE2=Everybody Loves My Baby
TTITLE3=Hampton Stomp
TTITLE4=I Just Couldn't Take It Baby
TTITLE5=I Surrender, Dear
TTITLE6=I'm In The Mood For Swing
TTITLE7=Jivin' The Vibes
TTITLE8=Judy
TTITLE9=Muskrat Ramble
TTITLE10=My Last Affair
TTITLE11=Piano Stomp (Shine)
TTITLE12=Moonlight Blues
TTITLE13=Ring Dem Bells
TTITLE14=Rock Hill Special
TTITLE15=Stompology
TTITLE16=The Mood That I'm In
TTITLE17=The Object Of My Affection
EXTD=
EXTT0=
EXTT1=
EXTT2=
EXTT3=
EXTT4=
EXTT5=
EXTT6=
EXTT7=
EXTT8=
EXTT9=
EXTT10=
EXTT11=
EXTT12=
EXTT13=
EXTT14=
EXTT15=
EXTT16=
EXTT17=
PLAYORDER=
